<svg width="56" height="63" viewBox="0 0 56 63" fill="none" xmlns="http://www.w3.org/2000/svg">
<path d="M26.6848 0.659721C25.5848 0.889954 26.5569 0.352745 13.6383 7.77135C2.25454 14.3202 1.23129 15.062 0.642914 17.0062C0.412682 17.7225 0.335938 21.8667 0.335938 31.5365V45.069L0.949891 46.3481C1.28245 47.0388 1.87082 47.9341 2.28012 48.3178C3.32896 49.2899 25.0731 61.7737 26.301 62.1062C27.5545 62.4388 29.5243 62.2085 30.7522 61.569C34.6917 59.5481 52.5987 48.8039 53.4685 47.9597C55.3615 46.1178 55.3359 46.2969 55.3359 31.383C55.3359 16.6225 55.3359 16.6225 53.5964 14.9597C52.7266 14.1155 31.8778 1.75972 30.1383 1.06902C29.0383 0.608559 27.708 0.45507 26.6848 0.659721ZM34.2313 4.75274C36.7638 6.1853 38.9638 7.48995 39.0917 7.61786C39.2708 7.79693 38.9894 7.82251 38.3243 7.74577C37.7615 7.66902 33.515 7.36204 28.8592 7.08065C24.229 6.77367 20.0336 6.49228 19.5476 6.41553L18.6778 6.26204L19.8034 5.62251C26.2243 1.91321 26.1731 1.91321 27.9638 2.04112C29.5243 2.11786 29.908 2.29693 34.2313 4.75274ZM32.5941 8.82018C34.0266 9.56204 48.915 21.8923 49.3243 22.7109C49.9382 23.862 49.7848 25.4225 48.1731 35.3737C46.4336 45.8876 46.3569 46.1434 44.3103 47.1411C42.0592 48.2411 25.4313 54.4062 24.715 54.4062C24.3313 54.4062 23.7173 54.3295 23.3592 54.2271C23.0266 54.1504 19.8034 51.6946 16.1964 48.8295C5.73361 40.4132 5.70803 40.3876 5.70803 38.1876C5.70803 36.3713 8.72663 18.3876 9.1871 17.4155C9.44291 16.9039 10.0569 16.2644 10.6708 15.9062C11.515 15.4202 23.1034 10.8667 28.6034 8.84576C30.2406 8.25739 31.4685 8.23181 32.5941 8.82018ZM13.229 9.68995C13.1266 9.86902 10.4917 13.7574 7.3964 18.3109L1.74291 26.5992L1.66617 22.3527C1.56384 16.1365 1.56384 16.162 8.72663 12.0179C11.2336 10.5853 13.2801 9.40856 13.3313 9.40856C13.3824 9.38297 13.3313 9.53646 13.229 9.68995ZM48.9406 13.3481C51.9336 15.0365 52.701 15.6504 53.2894 16.8272C53.7755 17.7481 53.801 18.2341 53.7499 23.5295L53.6731 29.2341L49.5289 20.6644C44.4382 10.1248 44.7708 10.9434 45.8964 11.6086C46.3824 11.8899 47.7382 12.683 48.9406 13.3481ZM6.19407 42.5109C8.57314 47.4225 10.4917 51.4899 10.4406 51.5411C10.3894 51.5923 8.72663 50.6969 6.73128 49.5202C3.89175 47.883 2.94524 47.1923 2.43361 46.3992L1.74291 45.376L1.66617 39.3388C1.61501 36.0388 1.64059 33.3783 1.69175 33.4295C1.7685 33.5062 3.78942 37.5737 6.19407 42.5109ZM53.5708 45.4527C53.4173 45.9644 52.9824 46.6806 52.5987 47.0388C51.8568 47.7295 42.2638 53.4341 42.0848 53.2806C42.0336 53.2295 44.6173 49.3667 47.8406 44.7109L53.6731 36.2178L53.7499 40.3876C53.801 42.7411 53.7243 44.9411 53.5708 45.4527ZM26.8127 55.4295C31.5964 55.7364 35.8429 56.0434 36.2778 56.1457C36.9941 56.3248 36.815 56.4527 33.3103 58.4225C29.0383 60.8527 28.2708 61.1597 27.1196 60.955C26.3522 60.8016 16.7336 55.5062 16.0685 54.8667C15.915 54.7132 16.222 54.662 16.9638 54.7644C17.6034 54.8411 22.029 55.1481 26.8127 55.4295Z" fill="#124094"/>
<path d="M10.7254 25.7777C10.5719 26.2126 8.78125 36.6498 8.78125 37.0335C8.78125 37.2126 9.98358 37.2893 12.5673 37.2126C16.0975 37.1358 16.4045 37.0846 17.5045 36.4451C19.551 35.2428 20.8045 32.7358 20.8045 29.8451C20.8045 28.0288 20.1905 26.7753 18.9626 26.187C17.6836 25.5474 10.9045 25.2149 10.7254 25.7777ZM16.7115 29.0009C17.1719 29.6149 17.2487 29.9219 17.0952 30.9707C16.7626 33.6056 15.7394 34.7056 13.6417 34.7056C12.7208 34.7056 12.7208 34.7312 13.2836 31.4056C13.8208 28.1312 13.7185 28.3102 15.0231 28.3102C15.9696 28.3102 16.251 28.4381 16.7115 29.0009Z" fill="#124094"/>
<path d="M21.5922 27.468C22.2061 28.568 23.0247 30.0261 23.434 30.7424C24.1503 31.9447 24.1759 32.1238 24.0224 33.9145C23.9201 34.9633 23.7666 36.14 23.6899 36.5493L23.562 37.2656H25.3271H27.1178L27.5271 34.7075L27.9364 32.1493L26.0945 28.9005L24.2271 25.6261L22.3596 25.5494L20.4922 25.4726L21.5922 27.468Z" fill="#124094"/>
<path d="M26.4297 25.6524C26.4297 25.9338 28.8343 30.3594 28.9878 30.3594C29.2436 30.3338 31.8018 26.2664 31.8018 25.8826C31.8018 25.5757 31.3413 25.4989 29.1157 25.4989C27.632 25.4989 26.4297 25.5757 26.4297 25.6524Z" fill="#DD0045"/>
<path d="M33.2077 25.803C33.0798 26.2123 31.2891 36.6751 31.2891 37.0077C31.2891 37.1612 32.0053 37.2635 32.9007 37.2635H34.5123L34.8449 34.8844C35.3821 30.7402 35.6891 28.796 35.7914 28.8984C35.8937 29.0007 36.6356 35.9332 36.6612 36.8286C36.6612 37.2123 36.8402 37.2891 37.9658 37.2123L39.2705 37.1356L41.0867 33.1193C42.11 30.8937 43.0053 29.0774 43.0821 29.0774C43.1588 29.0774 42.9286 30.9193 42.5449 33.1705L41.8542 37.2891L43.3891 37.2123L44.9495 37.1356L45.896 31.6356C46.4332 28.617 46.8681 25.9821 46.8681 25.803C46.8937 25.5728 46.2542 25.496 44.4891 25.496H42.0844L40.4728 29.0774C39.5774 31.0472 38.7588 32.6588 38.6565 32.6588C38.5286 32.6588 38.4519 32.096 38.4519 31.4309C38.4519 30.7402 38.3751 29.1286 38.2984 27.8495L38.1193 25.496H35.7146C34.0263 25.496 33.2844 25.5984 33.2077 25.803Z" fill="#124094"/>
</svg>
