<svg width="48" height="48" viewBox="0 0 48 48" fill="none" xmlns="http://www.w3.org/2000/svg">
<path d="M31.0312 31.0312H16.9688V41.5781H31.0312V31.0312Z" fill="black"/>
<path d="M34.5469 6.42188H13.4531V9.9375H34.5469V6.42188Z" fill="black"/>
<path d="M36.1875 13.4531H11.8125C8.84062 13.4531 6.42188 15.8719 6.42188 18.8438V30.9187C6.42188 33.8906 8.84062 36.3094 11.8125 36.3094H13.4531V27.5156H34.5469V36.3094H36.1875C39.1594 36.3094 41.5781 33.8906 41.5781 30.9187V18.8438C41.5781 15.8719 39.1594 13.4531 36.1875 13.4531ZM32.7937 22.2469C31.8187 22.2469 31.0312 21.4594 31.0312 20.4844C31.0312 19.5094 31.8187 18.7219 32.7937 18.7219C33.7687 18.7219 34.5563 19.5094 34.5563 20.4844C34.5563 21.4594 33.7594 22.2469 32.7937 22.2469Z" fill="black"/>
</svg>
