<svg width="287" height="323" viewBox="0 0 287 323" fill="none" xmlns="http://www.w3.org/2000/svg">
<path d="M137.669 1.20096C131.936 2.40096 137.003 -0.39904 69.6693 38.2676C10.3359 72.401 5.0026 76.2676 1.93594 86.401C0.735938 90.1343 0.335938 111.734 0.335938 162.134V232.668L3.53594 239.334C5.26927 242.934 8.33594 247.601 10.4693 249.601C15.9359 254.668 129.269 319.734 135.669 321.468C142.203 323.201 152.469 322.001 158.869 318.668C179.403 308.134 272.736 252.134 277.269 247.734C287.136 238.134 287.003 239.068 287.003 161.334C287.003 84.401 287.003 84.401 277.936 75.7343C273.403 71.3343 164.736 6.93429 155.669 3.33429C149.936 0.934293 143.003 0.134293 137.669 1.20096ZM177.003 22.5343C190.203 30.001 201.669 36.801 202.336 37.4676C203.269 38.401 201.803 38.5343 198.336 38.1343C195.403 37.7343 173.269 36.1343 149.003 34.6676C124.869 33.0676 103.003 31.601 100.469 31.201L95.9359 30.401L101.803 27.0676C135.269 7.73429 135.003 7.73429 144.336 8.40096C152.469 8.80096 154.469 9.73429 177.003 22.5343ZM168.469 43.7343C175.936 47.601 253.536 111.868 255.669 116.134C258.869 122.134 258.069 130.268 249.669 182.134C240.603 236.934 240.203 238.268 229.536 243.468C217.803 249.201 131.136 281.334 127.403 281.334C125.403 281.334 122.203 280.934 120.336 280.401C118.603 280.001 101.803 267.201 83.0026 252.268C28.4693 208.401 28.3359 208.268 28.3359 196.801C28.3359 187.334 44.0693 93.601 46.4693 88.5343C47.8026 85.8676 51.0026 82.5343 54.2026 80.6676C58.6026 78.1343 119.003 54.401 147.669 43.8676C156.203 40.801 162.603 40.6676 168.469 43.7343ZM67.5359 48.2676C67.0026 49.201 53.2693 69.4676 37.1359 93.201L7.66927 136.401L7.26927 114.268C6.73594 81.8676 6.73594 82.001 44.0693 60.401C57.1359 52.9343 67.8026 46.801 68.0693 46.801C68.3359 46.6676 68.0693 47.4676 67.5359 48.2676ZM253.669 67.3343C269.269 76.1343 273.269 79.3343 276.336 85.4676C278.869 90.2676 279.003 92.801 278.736 120.401L278.336 150.134L256.736 105.468C230.203 50.5343 231.936 54.801 237.803 58.2676C240.336 59.7343 247.403 63.8676 253.669 67.3343ZM30.8693 219.334C43.2693 244.934 53.2693 266.134 53.0026 266.401C52.7359 266.668 44.0693 262.001 33.6693 255.868C18.8693 247.334 13.9359 243.734 11.2693 239.601L7.66927 234.268L7.26927 202.801C7.0026 185.601 7.13594 171.734 7.4026 172.001C7.8026 172.401 18.3359 193.601 30.8693 219.334ZM277.803 234.668C277.003 237.334 274.736 241.068 272.736 242.934C268.869 246.534 218.869 276.268 217.936 275.468C217.669 275.201 231.136 255.068 247.936 230.801L278.336 186.534L278.736 208.268C279.003 220.534 278.603 232.001 277.803 234.668ZM138.336 286.668C163.269 288.268 185.403 289.868 187.669 290.401C191.403 291.334 190.469 292.001 172.203 302.268C149.936 314.934 145.936 316.534 139.936 315.468C135.936 314.668 85.8026 287.068 82.3359 283.734C81.5359 282.934 83.1359 282.668 87.0026 283.201C90.3359 283.601 113.403 285.201 138.336 286.668Z" fill="#124094"/>
<path d="M54.4693 132.136C53.6693 134.403 44.3359 188.803 44.3359 190.803C44.3359 191.736 50.6026 192.136 64.0693 191.736C82.4693 191.336 84.0693 191.07 89.8026 187.736C100.469 181.47 107.003 168.403 107.003 153.336C107.003 143.87 103.803 137.336 97.4026 134.27C90.7359 130.936 55.4026 129.203 54.4693 132.136ZM85.6693 148.936C88.0693 152.136 88.4693 153.736 87.6693 159.203C85.9359 172.936 80.6026 178.67 69.6693 178.67C64.8693 178.67 64.8693 178.803 67.8026 161.47C70.6026 144.403 70.0693 145.336 76.8693 145.336C81.8026 145.336 83.2693 146.003 85.6693 148.936Z" fill="#124094"/>
<path d="M111.14 140.933C114.34 146.667 118.606 154.267 120.74 158C124.473 164.267 124.606 165.2 123.806 174.533C123.273 180 122.473 186.133 122.073 188.267L121.406 192H130.606H139.94L142.073 178.667L144.206 165.333L134.606 148.4L124.873 131.333L115.14 130.933L105.406 130.533L111.14 140.933Z" fill="#124094"/>
<path d="M136.336 131.467C136.336 132.933 148.869 156 149.669 156C151.003 155.867 164.336 134.667 164.336 132.667C164.336 131.067 161.936 130.667 150.336 130.667C142.603 130.667 136.336 131.067 136.336 131.467Z" fill="#DD0045"/>
<path d="M171.672 132.266C171.005 134.399 161.672 188.933 161.672 190.666C161.672 191.466 165.405 191.999 170.072 191.999H178.472L180.205 179.599C183.005 157.999 184.605 147.866 185.139 148.399C185.672 148.933 189.539 185.066 189.672 189.733C189.672 191.733 190.605 192.133 196.472 191.733L203.272 191.333L212.739 170.399C218.072 158.799 222.739 149.333 223.139 149.333C223.539 149.333 222.339 158.933 220.339 170.666L216.739 192.133L224.739 191.733L232.872 191.333L237.805 162.666C240.605 146.933 242.872 133.199 242.872 132.266C243.005 131.066 239.672 130.666 230.472 130.666H217.939L209.539 149.333C204.872 159.599 200.605 167.999 200.072 167.999C199.405 167.999 199.005 165.066 199.005 161.599C199.005 157.999 198.605 149.599 198.205 142.933L197.272 130.666H184.739C175.939 130.666 172.072 131.199 171.672 132.266Z" fill="#124094"/>
</svg>
