<svg width="18" height="126" viewBox="0 0 18 126" fill="none" xmlns="http://www.w3.org/2000/svg">
<path d="M10.624 116.87C13.036 116.87 14.08 119.066 14.08 121.19C14.08 123.656 12.766 125.474 10.516 125.96L10.336 124.898C12.082 124.646 13.288 123.134 13.288 121.19C13.288 119.174 12.298 117.788 10.534 117.788C8.968 117.788 8.086 118.796 7.528 120.632L6.88 122.756C6.43 124.232 5.278 125.51 3.388 125.51C1.318 125.51 0.0759991 123.764 0.0759991 121.352C0.0759991 119.138 1.3 117.572 3.334 117.14L3.514 118.112C2.02 118.4 0.868 119.624 0.868 121.352C0.868 123.404 1.876 124.592 3.298 124.592C4.792 124.592 5.71 123.728 6.214 122.108L6.862 119.984C7.492 117.95 8.626 116.87 10.624 116.87ZM7.078 108.386C5.53 108.638 4.81 109.826 4.81 111.374C4.81 113.174 5.782 114.434 7.87 114.434L10.21 114.434C12.298 114.434 13.27 113.174 13.27 111.374C13.27 109.826 12.55 108.638 11.002 108.386L11.074 107.468C13.18 107.72 14.08 109.43 14.08 111.374C14.08 113.516 12.982 115.334 10.372 115.334L7.708 115.334C5.098 115.334 4 113.516 4 111.374C4 109.43 4.9 107.72 7.006 107.468L7.078 108.386ZM5.026 100.304C4.954 100.61 4.9 100.988 4.9 101.33C4.9 103.022 6.214 104.354 8.014 104.354L13.756 104.354L13.972 105.002C14.026 105.146 13.954 105.254 13.81 105.254L4.18 105.254L4.18 104.372L5.584 104.372C4.612 103.706 4 102.59 4 101.222C4 100.898 4.036 100.538 4.09 100.232L5.026 100.304ZM10.372 91.4007C12.982 91.4007 14.08 93.2187 14.08 95.3607C14.08 97.5027 12.982 99.3207 10.372 99.3207L7.708 99.3207C5.098 99.3207 4 97.5027 4 95.3607C4 93.2187 5.098 91.4007 7.708 91.4007L10.372 91.4007ZM10.21 92.3007L7.87 92.3007C5.782 92.3007 4.81 93.5607 4.81 95.3607C4.81 97.1607 5.782 98.4207 7.87 98.4207L10.21 98.4207C12.298 98.4207 13.27 97.1607 13.27 95.3607C13.27 93.5607 12.298 92.3007 10.21 92.3007ZM13.756 88.16L13.972 88.808C14.026 88.952 13.954 89.06 13.81 89.06L0.327999 89.06L0.327999 88.16L13.756 88.16ZM13.756 84.3807L13.972 85.0287C14.026 85.1727 13.954 85.2807 13.81 85.2807L0.327999 85.2807L0.327999 84.3807L13.756 84.3807ZM4.36 73.5821L5.152 73.5821L5.152 75.9221L11.992 75.9221C12.658 75.9221 12.928 75.5801 12.928 74.9141L12.928 73.2221L13.72 73.3121L13.72 75.0761C13.72 76.2281 13.09 76.8221 12.028 76.8221L5.152 76.8221L5.152 78.6221L4.36 78.6221L4.36 76.8221L1.534 76.8221L1.318 76.1741C1.264 76.0301 1.336 75.9221 1.48 75.9221L4.36 75.9221L4.36 73.5821ZM10.372 63.3284C12.982 63.3284 14.08 65.1464 14.08 67.2884C14.08 69.4304 12.982 71.2484 10.372 71.2484L7.708 71.2484C5.098 71.2484 4 69.4304 4 67.2884C4 65.1464 5.098 63.3284 7.708 63.3284L10.372 63.3284ZM10.21 64.2284L7.87 64.2284C5.782 64.2284 4.81 65.4884 4.81 67.2884C4.81 69.0884 5.782 70.3484 7.87 70.3484L10.21 70.3484C12.298 70.3484 13.27 69.0884 13.27 67.2884C13.27 65.4884 12.298 64.2284 10.21 64.2284ZM13.72 49.4684L13.72 57.2084L0.508001 57.2084L0.508001 49.6484L1.3 49.6484L1.3 56.3084L6.52 56.3084L6.52 49.8284L7.312 49.8284L7.312 56.3084L12.928 56.3084L12.928 49.4684L13.72 49.4684ZM13.72 39.2162L13.72 40.3322L9.454 43.8062L13.72 47.2802L13.72 48.3962L8.86 44.4002L4.36 48.1262L4.36 46.9922L8.266 43.8062L4.36 40.6202L4.36 39.4862L8.86 43.2122L13.72 39.2162ZM9.868 29.6712C12.784 29.6712 13.972 31.4532 13.972 33.7033C13.972 35.0532 13.468 36.1873 12.496 36.8713L17.176 36.8713L17.392 37.5193C17.446 37.6633 17.374 37.7713 17.23 37.7713L4.18 37.7713L4.18 36.8893L5.512 36.8893C4.504 36.2052 4 35.0712 4 33.7033C4 31.4532 5.188 29.6712 8.104 29.6712L9.868 29.6712ZM10.048 30.5712L7.924 30.5712C5.818 30.5712 4.81 31.8852 4.81 33.7212C4.81 35.5212 5.998 36.8173 7.978 36.8713L9.85 36.8713C11.92 36.8713 13.162 35.5573 13.162 33.7212C13.162 31.8852 12.154 30.5712 10.048 30.5712ZM13.756 26.4256L13.972 27.0736C14.026 27.2176 13.954 27.3256 13.81 27.3256L0.328 27.3256L0.328 26.4256L13.756 26.4256ZM10.372 16.1663C12.982 16.1663 14.08 17.9843 14.08 20.1263C14.08 22.2683 12.982 24.0863 10.372 24.0863L7.708 24.0863C5.098 24.0863 4 22.2683 4 20.1263C4 17.9843 5.098 16.1663 7.708 16.1663L10.372 16.1663ZM10.21 17.0663L7.87 17.0663C5.782 17.0663 4.81 18.3263 4.81 20.1263C4.81 21.9263 5.782 23.1863 7.87 23.1863L10.21 23.1863C12.298 23.1863 13.27 21.9263 13.27 20.1263C13.27 18.3263 12.298 17.0663 10.21 17.0663ZM5.026 9.05562C4.954 9.36162 4.9 9.73962 4.9 10.0816C4.9 11.7736 6.214 13.1056 8.014 13.1056L13.756 13.1056L13.972 13.7536C14.026 13.8976 13.954 14.0056 13.81 14.0056L4.18 14.0056L4.18 13.1236L5.584 13.1236C4.612 12.4576 4 11.3416 4 9.97363C4 9.64962 4.036 9.28962 4.09 8.98362L5.026 9.05562ZM11.344 0.242656C13.252 0.638656 14.08 2.25866 14.08 4.11266C14.08 6.25466 12.982 8.07266 10.372 8.07266L7.708 8.07266C5.098 8.07266 4 6.25466 4 4.11266C4 1.97066 5.098 0.152656 7.708 0.152656L9.328 0.152656L9.328 7.17266L10.21 7.17266C12.298 7.17266 13.27 5.91266 13.27 4.11266C13.27 2.65466 12.622 1.53866 11.272 1.17866L11.344 0.242656ZM7.87 7.17266L8.536 7.17266L8.536 1.05266L7.87 1.05266C5.782 1.05266 4.81 2.31266 4.81 4.11266C4.81 5.91266 5.782 7.17266 7.87 7.17266Z" fill="#333333"/>
</svg>
