<svg width="36" height="36" viewBox="0 0 36 36" fill="none" xmlns="http://www.w3.org/2000/svg">
<path d="M18 0L33.5885 9V27L18 36L2.41154 27V9L18 0Z" fill="#034EA2"/>
<path d="M17.6464 27.3536C17.8417 27.5488 18.1583 27.5488 18.3536 27.3536L21.5355 24.1716C21.7308 23.9763 21.7308 23.6597 21.5355 23.4645C21.3403 23.2692 21.0237 23.2692 20.8284 23.4645L18 26.2929L15.1716 23.4645C14.9763 23.2692 14.6597 23.2692 14.4645 23.4645C14.2692 23.6597 14.2692 23.9763 14.4645 24.1716L17.6464 27.3536ZM17.5 9V27H18.5V9H17.5Z" fill="white"/>
</svg>
