<svg width="81" height="81" viewBox="0 0 81 81" fill="none" xmlns="http://www.w3.org/2000/svg">
<path d="M40.5 81L5.42597 60.75L5.42597 20.25L40.5 3.54062e-06L75.574 20.25L75.574 60.75L40.5 81Z" fill="#034EA2"/>
<path d="M31.71 49.9H28.28V49.284H35.84V49.9H32.41V59.588L31.906 59.756C31.794 59.798 31.71 59.742 31.71 59.63V49.9ZM44.6677 56.116C44.6677 58.44 42.9877 59.84 40.6777 59.84C38.3677 59.84 36.6877 58.44 36.6877 56.116V52.728C36.6877 50.404 38.3677 49.004 40.6777 49.004C42.9877 49.004 44.6677 50.404 44.6677 52.728V56.116ZM43.9677 55.948V52.896C43.9677 50.824 42.7077 49.634 40.6777 49.634C38.6477 49.634 37.3877 50.824 37.3877 52.896V55.948C37.3877 58.02 38.6477 59.21 40.6777 59.21C42.7077 59.21 43.9677 58.02 43.9677 55.948ZM53.3537 52.252C53.3537 54.408 51.9117 55.22 49.9517 55.22H47.3337V59.588L46.8297 59.756C46.7177 59.798 46.6337 59.742 46.6337 59.63V49.284H49.9517C51.9117 49.284 53.3537 50.096 53.3537 52.252ZM52.6537 52.252C52.6537 50.376 51.3237 49.9 49.6857 49.9H47.3337V54.604H49.6857C51.3237 54.604 52.6537 54.128 52.6537 52.252Z" fill="white"/>
<mask id="path-3-inside-1_600_3843" fill="white">
<path d="M34 31.9688L40.364 25.6048L46.7279 31.9688L40.364 38.3327L34 31.9688Z"/>
</mask>
<path d="M40.364 25.6048L41.0711 24.8977L40.364 24.1906L39.6569 24.8977L40.364 25.6048ZM34.7071 32.6759L41.0711 26.3119L39.6569 24.8977L33.2929 31.2616L34.7071 32.6759ZM39.6569 26.3119L46.0208 32.6759L47.435 31.2616L41.0711 24.8977L39.6569 26.3119Z" fill="white" mask="url(#path-3-inside-1_600_3843)"/>
<path d="M40.364 25.6048L41.0711 24.8977L40.364 24.1906L39.6569 24.8977L40.364 25.6048ZM34.7071 32.6759L41.0711 26.3119L39.6569 24.8977L33.2929 31.2616L34.7071 32.6759ZM39.6569 26.3119L46.0208 32.6759L47.435 31.2616L41.0711 24.8977L39.6569 26.3119Z" fill="white" mask="url(#path-3-inside-1_600_3843)"/>
<line x1="40.5" y1="27" x2="40.5" y2="42" stroke="white"/>
</svg>
